<?xml version="1.0" encoding="UTF-8"?>
<svg version="1.1" xmlns="http://www.w3.org/2000/svg" width="512" height="512">
<path d="M0 0 C3.13360469 1.30921727 5.76710917 3.3577651 8.51849747 5.31721401 C21.74594898 14.39764523 36.40725964 20.90259983 51.95599747 24.81721401 C53.18318497 25.13561245 54.41037247 25.45401089 55.67474747 25.78205776 C90.01699017 33.23432443 126.25652423 26.18409578 155.95599747 7.81721401 C158.99342328 5.72423378 161.90329929 3.49148159 164.75677872 1.15315151 C166.95599747 -0.18278599 166.95599747 -0.18278599 168.86407471 0.02689171 C171.40688184 0.98755681 172.70932866 2.20117394 174.62598038 4.12643337 C175.69441177 5.18867878 175.69441177 5.18867878 176.78442764 6.27238369 C177.55550858 7.05425045 178.32658951 7.83611721 179.12103653 8.6416769 C179.94092056 9.46112286 180.7608046 10.28056881 181.6055336 11.12484646 C184.31806629 13.83947181 187.01981406 16.56457448 189.72162247 19.28987026 C191.5985557 21.17239772 193.47606825 23.05432874 195.35437393 24.93548489 C199.79435907 29.38479417 204.22664154 33.84169543 208.65621161 38.30137104 C213.69985874 43.37855068 218.75202746 48.44721402 223.80493212 53.51517785 C234.19813199 63.93973508 244.58058327 74.37495408 254.95599747 84.81721401 C215.11794057 124.85793544 152.58560819 149.72431502 96.16302872 150.02033901 C95.26244232 150.02735332 94.36185593 150.03436764 93.43397903 150.04159451 C90.54543366 150.0589921 87.65709331 150.06544628 84.76849747 150.06721401 C83.78145828 150.06788876 82.7944191 150.0685635 81.77746964 150.06925869 C67.30874196 150.05352894 53.18258526 149.69732486 38.95599747 146.81721401 C38.03818497 146.6349728 37.12037247 146.45273159 36.17474747 146.26496792 C29.72338107 144.95343844 23.3316987 143.45586365 16.95599747 141.81721401 C16.20125137 141.62401577 15.44650528 141.43081753 14.66888809 141.23176479 C-22.35155107 131.54269133 -59.94910216 112.10019544 -87.04400253 84.81721401 C-76.04565822 73.70217239 -65.03311871 62.6014088 -54.00337982 51.51753044 C-48.88263954 46.37098634 -43.76668892 41.21984366 -38.66167831 36.05769253 C-34.2131808 31.55942664 -29.75602303 27.06995935 -25.2881577 22.59092671 C-22.92177377 20.21801286 -20.56001886 17.84086588 -18.2085762 15.4531374 C-15.58408712 12.79256626 -12.94458318 10.14784104 -10.30083847 7.506423 C-9.13019096 6.30881092 -9.13019096 6.30881092 -7.93589401 5.08700466 C-6.85484138 4.01626202 -6.85484138 4.01626202 -5.75194931 2.92388821 C-5.12881725 2.29614718 -4.5056852 1.66840616 -3.86367035 1.02164268 C-2.04400253 -0.18278599 -2.04400253 -0.18278599 0 0 Z " fill="#000000" transform="translate(172.04400253295898,362.182785987854)"/>
<path d="M0 0 C40.04072143 39.8380569 64.90710101 102.37038928 65.203125 158.79296875 C65.21013931 159.69355515 65.21715363 160.59414154 65.22438049 161.52201843 C65.24177809 164.41056381 65.24823227 167.29890416 65.25 170.1875 C65.25067474 171.17453918 65.25134949 172.16157837 65.25204468 173.17852783 C65.23631492 187.64725551 64.88011084 201.7734122 62 216 C61.81775879 216.9178125 61.63551758 217.835625 61.44775391 218.78125 C60.13622443 225.2326164 58.63864963 231.62429877 57 238 C56.80680176 238.75474609 56.61360352 239.50949219 56.41455078 240.28710938 C46.72547732 277.30754853 27.28298142 314.90509963 0 342 C-11.11504162 331.00165568 -22.21580521 319.98911618 -33.29968357 308.95937729 C-38.44622767 303.83863701 -43.59737035 298.72268639 -48.75952148 293.61767578 C-53.25778738 289.16917827 -57.74725466 284.7120205 -62.22628731 280.24415517 C-64.59920116 277.87777124 -66.97634813 275.51601633 -69.36407661 273.16457367 C-72.02464776 270.54008459 -74.66937297 267.90058064 -77.31079102 265.25683594 C-78.10919907 264.47640427 -78.90760712 263.6959726 -79.73020935 262.89189148 C-80.800952 261.81083885 -80.800952 261.81083885 -81.89332581 260.70794678 C-82.52106683 260.08481472 -83.14880785 259.46168266 -83.79557133 258.81966782 C-85 257 -85 257 -84.81721401 254.95599747 C-83.50799674 251.82239277 -81.45944892 249.1888883 -79.5 246.4375 C-70.41956878 233.21004849 -63.91461419 218.54873783 -60 203 C-59.68160156 201.7728125 -59.36320312 200.545625 -59.03515625 199.28125 C-51.58288958 164.9390073 -58.63311823 128.69947323 -77 99 C-79.09298023 95.96257418 -81.32573242 93.05269817 -83.6640625 90.19921875 C-85 88 -85 88 -84.7903223 86.09192276 C-83.8296572 83.54911563 -82.61604007 82.24666881 -80.69078064 80.33001709 C-79.98261703 79.61772949 -79.27445343 78.90544189 -78.54483032 78.17156982 C-77.76296356 77.40048889 -76.9810968 76.62940796 -76.17553711 75.83496094 C-74.94636818 74.60513489 -74.94636818 74.60513489 -73.69236755 73.35046387 C-70.9777422 70.63793118 -68.25263953 67.9361834 -65.52734375 65.234375 C-63.64481629 63.35744177 -61.76288527 61.47992922 -59.88172913 59.60162354 C-55.43241985 55.16163839 -50.97551858 50.72935592 -46.51584297 46.29978585 C-41.43866333 41.25613872 -36.37 36.20397001 -31.30203617 31.15106535 C-20.87747893 20.75786547 -10.44225993 10.37541419 0 0 Z " fill="#000000" transform="translate(447,85)"/>
<path d="M0 0 C5.26203883 4.40506015 10.19682984 9.0329437 15.0625 13.86962891 C15.83566055 14.63461197 16.60882111 15.39959503 17.40541077 16.1877594 C19.93996005 18.6976704 22.47050839 21.2115549 25 23.7265625 C25.86640106 24.58763988 26.73280212 25.44871727 27.62545776 26.33588791 C32.19867467 30.88248484 36.768286 35.4326741 41.33544922 39.98535156 C45.11923571 43.75573052 48.90984554 47.51900489 52.70751953 51.27539062 C57.29774004 55.81650967 61.87576726 60.36957877 66.44506836 64.93174362 C68.18884897 66.66878692 69.93690071 68.40155312 71.68920898 70.12999344 C74.12881684 72.53821805 76.55242762 74.96148275 78.97265625 77.38916016 C79.70396255 78.10406113 80.43526886 78.8189621 81.18873596 79.55552673 C81.84196335 80.2170726 82.49519073 80.87861847 83.16821289 81.56021118 C84.02981773 82.41685081 84.02981773 82.41685081 84.90882874 83.29079628 C86 85 86 85 85.80003357 87.02724266 C84.52155205 90.17977763 82.46192562 92.80763399 80.5 95.5625 C71.41956878 108.78995151 64.91461419 123.45126217 61 139 C60.68160156 140.2271875 60.36320312 141.454375 60.03515625 142.71875 C52.58288958 177.0609927 59.63311823 213.30052677 78 243 C80.09298023 246.03742582 82.32573242 248.94730183 84.6640625 251.80078125 C86 254 86 254 85.7903223 255.90807724 C84.8296572 258.45088437 83.61604007 259.75333119 81.69078064 261.66998291 C80.98261703 262.38227051 80.27445343 263.09455811 79.54483032 263.82843018 C78.76296356 264.59951111 77.9810968 265.37059204 77.17553711 266.16503906 C76.35609116 266.9849231 75.5366452 267.80480713 74.69236755 268.64953613 C71.9777422 271.36206882 69.25263953 274.0638166 66.52734375 276.765625 C64.64481629 278.64255823 62.76288527 280.52007078 60.88172913 282.39837646 C56.43241985 286.83836161 51.97551858 291.27064408 47.51584297 295.70021415 C42.43866333 300.74386128 37.37 305.79602999 32.30203617 310.84893465 C21.87747893 321.24213453 11.44225993 331.62458581 1 342 C-39.04072143 302.1619431 -63.90710101 239.62961072 -64.203125 183.20703125 C-64.21364647 181.85615166 -64.21364647 181.85615166 -64.22438049 180.47798157 C-64.24177809 177.58943619 -64.24823227 174.70109584 -64.25 171.8125 C-64.25101212 170.33194122 -64.25101212 170.33194122 -64.25204468 168.82147217 C-64.23631492 154.35274449 -63.88011084 140.2265878 -61 126 C-60.72663818 124.62328125 -60.72663818 124.62328125 -60.44775391 123.21875 C-59.13622443 116.7673836 -57.63864963 110.37570123 -56 104 C-55.80680176 103.24525391 -55.61360352 102.49050781 -55.41455078 101.71289062 C-46.04509154 65.91364758 -27.76149368 33.16886751 -4 5 C-2.66213955 3.33696513 -1.32754333 1.67128222 0 0 Z " fill="#000000" transform="translate(64,85)"/>
<path d="M0 0 C0.9005864 -0.00701431 1.80117279 -0.01402863 2.72904968 -0.02125549 C5.61759506 -0.03865309 8.50593541 -0.04510727 11.39453125 -0.046875 C12.38157043 -0.04754974 13.36860962 -0.04822449 14.38555908 -0.04891968 C28.85428676 -0.03318992 42.98044345 0.32301416 57.20703125 3.203125 C58.12484375 3.38536621 59.04265625 3.56760742 59.98828125 3.75537109 C66.43964765 5.06690057 72.83133002 6.56447537 79.20703125 8.203125 C79.96177734 8.39632324 80.71652344 8.58952148 81.49414062 8.78857422 C118.51457978 18.47764768 156.11213088 37.92014358 183.20703125 65.203125 C172.20868693 76.31816662 161.19614743 87.41893021 150.16640854 98.50280857 C145.04566826 103.64935267 139.92971764 108.80049535 134.82470703 113.96264648 C130.37620952 118.46091238 125.91905175 122.95037966 121.45118642 127.42941231 C119.08480249 129.80232616 116.72304758 132.17947313 114.37160492 134.56720161 C111.74711584 137.22777276 109.10761189 139.87249797 106.46386719 142.51391602 C105.68343552 143.31232407 104.90300385 144.11073212 104.09892273 144.93333435 C103.37822098 145.64716278 102.65751923 146.36099121 101.91497803 147.09645081 C101.29184597 147.72419183 100.66871391 148.35193285 100.02669907 148.99869633 C98.20703125 150.203125 98.20703125 150.203125 96.16302872 150.02033901 C93.02942402 148.71112174 90.39591955 146.66257392 87.64453125 144.703125 C74.41707974 135.62269378 59.75576908 129.11773919 44.20703125 125.203125 C42.97984375 124.88472656 41.75265625 124.56632812 40.48828125 124.23828125 C6.14603855 116.78601458 -30.09349552 123.83624323 -59.79296875 142.203125 C-62.83039457 144.29610523 -65.74027058 146.52885742 -68.59375 148.8671875 C-70.79296875 150.203125 -70.79296875 150.203125 -72.70104599 149.9934473 C-75.24385312 149.0327822 -76.54629994 147.81916507 -78.46295166 145.89390564 C-79.17523926 145.18574203 -79.88752686 144.47757843 -80.62139893 143.74795532 C-81.39247986 142.96608856 -82.16356079 142.1842218 -82.95800781 141.37866211 C-83.77789185 140.55921616 -84.59777588 139.7397702 -85.44250488 138.89549255 C-88.15503757 136.1808672 -90.85678535 133.45576453 -93.55859375 130.73046875 C-95.43552698 128.84794129 -97.31303953 126.96601027 -99.19134521 125.08485413 C-103.63133036 120.63554485 -108.06361283 116.17864358 -112.4931829 111.71896797 C-117.53683003 106.64178833 -122.58899874 101.573125 -127.6419034 96.50516117 C-138.03510328 86.08060393 -148.41755456 75.64538493 -158.79296875 65.203125 C-118.95491185 25.16240357 -56.42257947 0.29602399 0 0 Z " fill="#000000" transform="translate(243.79296875,-0.203125)"/>
<path d="M0 0 C2 1 2 1 3.0703125 3.71875 C9.80306488 27.85691409 6.82761547 52.1873652 -4.93115234 74.11962891 C-7.55391165 78.73372031 -10.64333627 82.90119358 -14 87 C-14.56332031 87.71414063 -15.12664062 88.42828125 -15.70703125 89.1640625 C-28.67951257 104.90117098 -50.68550595 116.95082567 -71 119 C-84.7931594 119.90722364 -98.94585204 120.13913296 -112 115 C-112.33 114.34 -112.66 113.68 -113 113 C-112.18660156 112.56171875 -111.37320312 112.1234375 -110.53515625 111.671875 C-99.79711254 105.72911065 -89.5710616 98.98521298 -79.93579102 91.36816406 C-75.94041277 88.22822424 -72.70745108 86.22468946 -67.6875 85 C-52.58042626 80.72605882 -40.95022998 71.56215703 -33 58 C-30.81341919 53.787704 -28.7336419 49.53506263 -27.41088867 44.96435547 C-25.59129172 38.78587827 -22.7196901 34.3275028 -18.8125 29.25 C-11.82611115 19.8872091 -5.69567776 10.20475599 0 0 Z " fill="#000000" transform="translate(506,393)"/>
<path d="M0 0 C2.71752381 3.25518443 4.91358808 6.46715262 6.9375 10.1875 C12.34358012 19.64519572 18.90090142 28.4999742 25.62084961 37.06616211 C27.43187419 39.60557186 28.01211059 42.05464392 28.8125 45.0625 C33.32919194 60.24266012 42.27579208 71.95477467 56 80 C60.212296 82.18658081 64.46493737 84.2663581 69.03564453 85.58911133 C75.21412173 87.40870828 79.6724972 90.2803099 84.75 94.1875 C94.1127909 101.17388885 103.79524401 107.30432224 114 113 C113 115 113 115 110.28125 116.0703125 C86.14308591 122.80306488 61.8126348 119.82761547 39.88037109 108.06884766 C35.26627969 105.44608835 31.09880642 102.35666373 27 99 C25.92878906 98.15501953 25.92878906 98.15501953 24.8359375 97.29296875 C9.09882902 84.32048743 -2.95082567 62.31449405 -5 42 C-5.92290034 27.96849674 -5.77860669 14.35706931 -1 1 C-0.67 0.67 -0.34 0.34 0 0 Z " fill="#000000" transform="translate(5,393)"/>
<path d="M0 0 C1.661526 1.29257687 3.30884946 2.60373801 4.9375 3.9375 C6.00871094 4.78248047 6.00871094 4.78248047 7.1015625 5.64453125 C22.83867098 18.61701257 34.88832567 40.62300595 36.9375 60.9375 C37.84472364 74.7306594 38.07663296 88.88335204 32.9375 101.9375 C31.9475 102.4325 31.9475 102.4325 30.9375 102.9375 C30.49921875 102.12410156 30.0609375 101.31070313 29.609375 100.47265625 C23.66661065 89.73461254 16.92271298 79.5085616 9.30566406 69.87329102 C6.16572424 65.87791277 4.16218946 62.64495108 2.9375 57.625 C-1.33644118 42.51792626 -10.50034297 30.88772998 -24.0625 22.9375 C-28.274796 20.75091919 -32.52743737 18.6711419 -37.09814453 17.34838867 C-43.27662173 15.52879172 -47.7349972 12.6571901 -52.8125 8.75 C-62.1752909 1.76361115 -71.85774401 -4.36682224 -82.0625 -10.0625 C-81.0625 -12.0625 -81.0625 -12.0625 -78.34375 -13.1328125 C-51.3217937 -20.66992841 -22.90239295 -16.26859637 0 0 Z " fill="#000000" transform="translate(475.0625,16.0625)"/>
<path d="M0 0 C0.495 0.99 0.495 0.99 1 2 C0.18660156 2.43828125 -0.62679687 2.8765625 -1.46484375 3.328125 C-12.20288746 9.27088935 -22.4289384 16.01478702 -32.06420898 23.63183594 C-36.05958723 26.77177576 -39.29254892 28.77531054 -44.3125 30 C-59.41957374 34.27394118 -71.04977002 43.43784297 -79 57 C-81.18658081 61.212296 -83.2663581 65.46493737 -84.58911133 70.03564453 C-86.40870828 76.21412173 -89.2803099 80.6724972 -93.1875 85.75 C-100.17388885 95.1127909 -106.30432224 104.79524401 -112 115 C-114 114 -114 114 -115.0703125 111.28125 C-121.80306488 87.14308591 -118.82761547 62.8126348 -107.06884766 40.88037109 C-104.44608835 36.26627969 -101.35666373 32.09880642 -98 28 C-97.43667969 27.28585938 -96.87335938 26.57171875 -96.29296875 25.8359375 C-74.41429506 -0.70540435 -32.30598081 -12.71815911 0 0 Z " fill="#000000" transform="translate(118,4)"/>
</svg>
